<svg viewBox="0 0 24 24" xmlns="http://www.w3.org/2000/svg">
<path d="M10.8214 17.7751C10.5316 18.071 10.0567 18.0759 9.76081 17.786C9.46491 17.4962 9.46002 17.0213 9.74988 16.7254L14.3786 12.0002L9.74988 7.27508C9.46002 6.97918 9.46491 6.50433 9.76081 6.21448C10.0567 5.92462 10.5316 5.92951 10.8214 6.22541L15.9643 11.4754C16.2499 11.767 16.2499 12.2335 15.9643 12.5251L10.8214 17.7751Z" fill="currentColor"/>
<path fill-rule="evenodd" clip-rule="evenodd" d="M12.0002 24.0002C5.37281 24.0002 0.000241419 18.6277 0.000239801 12.0002C0.000240091 5.37282 5.37281 0.000243326 12.0002 0.000243616C18.6277 0.000243906 24.0002 5.37282 24.0002 12.0002C24.0002 18.6277 18.6277 24.0002 12.0002 24.0002ZM12.0002 22.5002C6.20124 22.5002 1.50024 17.7992 1.50024 12.0002C1.50024 6.20124 6.20124 1.50024 12.0002 1.50024C17.7992 1.50024 22.5002 6.20124 22.5002 12.0002C22.5002 17.7992 17.7992 22.5002 12.0002 22.5002Z" fill="currentColor"/>
</svg>
