<svg viewBox="0 0 15 16" xmlns="http://www.w3.org/2000/svg">
<path fill-rule="evenodd" clip-rule="evenodd" d="M15.0001 0.500004C15.0001 0.352844 14.9353 0.213156 14.8229 0.118154C14.7105 0.0231515 14.5619 -0.0175175 14.4168 0.006981L7.50006 1.17475L0.586201 0.00698673C0.44109 -0.0175227 0.292551 0.0231404 0.180157 0.118143C0.0677631 0.213145 0.00292969 0.352838 0.00292969 0.500004V14.3182C0.00292969 14.5622 0.179057 14.7706 0.419658 14.8112L7.40589 15.9912C7.46287 16.0021 7.52274 16.0033 7.58332 15.993L14.5833 14.8112C14.8239 14.7706 15.0001 14.5622 15.0001 14.3182V0.500004ZM8 14.9085L14.0001 13.8955V1.0915L8 2.1045V14.9085ZM1.00293 13.8956V1.09154L7 2.10445V14.9085L1.00293 13.8956Z" fill="currentColor"/>
</svg>
