<svg viewBox="0 0 17 16" xmlns="http://www.w3.org/2000/svg">
<path d="M5.51378 12.8832C5.51378 12.9493 5.43734 13.0023 5.34096 13.0023C5.23128 13.0122 5.15484 12.9593 5.15484 12.8832C5.15484 12.817 5.23128 12.7641 5.32766 12.7641C5.42737 12.7541 5.51378 12.8071 5.51378 12.8832ZM4.48016 12.7343C4.45689 12.8005 4.52336 12.8766 4.62307 12.8964C4.70948 12.9295 4.80919 12.8964 4.82913 12.8302C4.84907 12.7641 4.78592 12.688 4.68622 12.6582C4.5998 12.635 4.50342 12.6681 4.48016 12.7343ZM5.94917 12.6781C5.85279 12.7012 5.78631 12.7641 5.79628 12.8402C5.80626 12.9063 5.89267 12.9493 5.99237 12.9262C6.08876 12.903 6.15523 12.8402 6.14526 12.774C6.13529 12.7111 6.04555 12.6681 5.94917 12.6781ZM8.13607 0C3.5263 0 0 3.48382 0 8.07266C0 11.7418 2.31984 14.8815 5.63343 15.9865C6.05885 16.0626 6.20841 15.8012 6.20841 15.5862C6.20841 15.3811 6.19844 14.2496 6.19844 13.5548C6.19844 13.5548 3.87195 14.0511 3.38338 12.5689C3.38338 12.5689 3.0045 11.6061 2.45943 11.358C2.45943 11.358 1.69834 10.8385 2.51261 10.8485C2.51261 10.8485 3.34018 10.9146 3.7955 11.7021C4.52336 12.9791 5.74311 12.6119 6.21838 12.3935C6.29482 11.8642 6.51085 11.4969 6.75015 11.2786C4.89228 11.0734 3.01779 10.8055 3.01779 7.62271C3.01779 6.71288 3.27038 6.25631 3.80215 5.67402C3.71574 5.45897 3.43324 4.5723 3.88856 3.42757C4.58319 3.21252 6.18182 4.32086 6.18182 4.32086C6.84653 4.13559 7.56109 4.03964 8.26901 4.03964C8.97693 4.03964 9.69149 4.13559 10.3562 4.32086C10.3562 4.32086 11.9548 3.20921 12.6495 3.42757C13.1048 4.57561 12.8223 5.45897 12.7359 5.67402C13.2676 6.25962 13.5934 6.71619 13.5934 7.62271C13.5934 10.8154 11.6358 11.0701 9.77791 11.2786C10.0837 11.5399 10.3429 12.0362 10.3429 12.8137C10.3429 13.9287 10.3329 15.3083 10.3329 15.5796C10.3329 15.7946 10.4858 16.056 10.9079 15.9799C14.2315 14.8815 16.4848 11.7418 16.4848 8.07266C16.4848 3.48382 12.7458 0 8.13607 0ZM3.2305 11.4109C3.18729 11.444 3.19726 11.5201 3.25376 11.5829C3.30694 11.6359 3.38338 11.659 3.42659 11.616C3.46979 11.5829 3.45982 11.5069 3.40332 11.444C3.35015 11.3911 3.2737 11.3679 3.2305 11.4109ZM2.87155 11.1429C2.84829 11.1859 2.88152 11.2389 2.948 11.272C3.00117 11.305 3.06764 11.2951 3.09091 11.2488C3.11417 11.2058 3.08094 11.1528 3.01447 11.1198C2.948 11.0999 2.89482 11.1098 2.87155 11.1429ZM3.94839 12.3207C3.89521 12.3637 3.91515 12.463 3.99159 12.5259C4.06804 12.602 4.16442 12.6119 4.20762 12.5589C4.25083 12.5159 4.23089 12.4167 4.16442 12.3538C4.0913 12.2777 3.99159 12.2678 3.94839 12.3207ZM3.5695 11.8344C3.51632 11.8675 3.51632 11.9535 3.5695 12.0296C3.62268 12.1057 3.71241 12.1388 3.75562 12.1057C3.8088 12.0627 3.8088 11.9767 3.75562 11.9006C3.70909 11.8245 3.62268 11.7914 3.5695 11.8344Z" fill="currentColor"/>
</svg>
