<svg viewBox="0 0 22 22" xmlns="http://www.w3.org/2000/svg">
<path fill-rule="evenodd" clip-rule="evenodd" d="M15.9563 5.75476C16.105 5.75476 16.4038 5.75476 16.7026 5.90491C16.8521 6.05469 17.0015 6.20483 17.0015 6.50476C17.0015 7.40491 16.4038 8.30469 15.9563 8.75476C15.9563 10.7048 15.0598 12.8047 13.7158 14.3047C12.5205 15.6549 11.0271 16.2548 9.38428 16.2548C7.74146 16.2548 6.24805 15.5048 5.50098 15.2048C5.29517 14.9979 5.15967 14.791 5.14502 14.535C5.13843 14.4197 5.15601 14.2944 5.20215 14.1549C5.20215 13.9875 5.34131 13.8671 5.51636 13.7931C5.65552 13.7341 5.81665 13.7048 5.94922 13.7048C6.54688 13.8546 7.1438 13.2548 7.59204 12.8047C7.44263 12.5048 7.1438 12.3546 6.99438 12.0547C5.7998 10.8546 4.75464 8.60461 5.05273 6.35461C5.20215 6.05469 5.35156 5.90491 5.65039 5.75476C5.94922 5.75476 6.24805 5.75476 6.39746 6.05469C6.86914 6.62415 7.70044 7.19324 8.62476 7.61072C9.16235 7.85315 9.73145 8.04468 10.2808 8.15491L10.283 8.14832C10.4316 7.70044 10.5803 7.25256 10.8777 6.80469C11.7742 5.75476 13.5664 5.45483 14.761 6.35461C14.8511 6.30957 14.9551 6.26416 15.0686 6.21472C15.3308 6.10046 15.6436 5.96423 15.9563 5.75476ZM12.6699 13.2548C14.0146 11.9049 14.4622 9.80469 14.4622 8.45483C14.4622 8.30469 14.6116 8.00476 14.761 7.85461C14.6116 7.85461 14.3127 7.85461 14.1641 7.70483C13.5664 7.10461 12.5205 7.25476 12.073 7.70483C11.7742 8.00476 11.6248 8.30469 11.7742 8.75476C11.8555 8.91736 11.8481 9.07996 11.8005 9.21875C11.761 9.33594 11.6929 9.43591 11.6248 9.50476C11.4753 9.65491 11.3259 9.80469 11.0271 9.80469C9.68311 9.65491 8.04028 9.20483 6.69629 8.30469C7.1438 10.2548 8.63721 11.9049 9.08545 12.0547C9.38428 12.0547 9.68311 12.2048 9.68311 12.5048C9.83252 12.9548 9.68311 13.2548 9.38428 13.4049C9.23486 13.5547 8.93604 13.7048 8.78662 13.8546C8.63721 14.0051 8.48706 14.1179 8.33691 14.2307C8.18823 14.3428 8.03955 14.4552 7.89087 14.6046C9.83252 15.0547 11.3259 14.6046 12.6699 13.2548Z" fill="currentColor"/>
<path fill-rule="evenodd" clip-rule="evenodd" d="M3.61426 0.503662C1.89966 0.503662 0.5 1.90332 0.5 3.61755V18.392C0.5 20.1062 1.89966 21.5059 3.61426 21.5059H18.3887C20.1025 21.5059 21.5022 20.1062 21.5022 18.392V3.61755C21.5022 1.90332 20.1025 0.503662 18.3887 0.503662H3.61426ZM2 3.61755C2 2.73169 2.72803 2.00366 3.61426 2.00366H18.3887C19.2742 2.00366 20.0022 2.73169 20.0022 3.61755V18.392C20.0022 19.2778 19.2742 20.0059 18.3887 20.0059H3.61426C2.72803 20.0059 2 19.2778 2 18.392V3.61755Z" fill="currentColor"/>
</svg>
