<svg viewBox="0 0 14 14" xmlns="http://www.w3.org/2000/svg">
<path d="M2.94125 8.84688C2.94125 9.65625 2.28 10.3175 1.47063 10.3175C0.66125 10.3175 0 9.65625 0 8.84688C0 8.0375 0.66125 7.37625 1.47063 7.37625H2.94125V8.84688ZM3.6825 8.84688C3.6825 8.0375 4.34375 7.37625 5.15312 7.37625C5.9625 7.37625 6.62375 8.0375 6.62375 8.84688V12.5294C6.62375 13.3387 5.9625 14 5.15312 14C4.34375 14 3.6825 13.3387 3.6825 12.5294V8.84688ZM5.15312 2.94125C4.34375 2.94125 3.6825 2.28 3.6825 1.47062C3.6825 0.66125 4.34375 0 5.15312 0C5.9625 0 6.62375 0.66125 6.62375 1.47062V2.94125H5.15312ZM5.15312 3.6825C5.9625 3.6825 6.62375 4.34375 6.62375 5.15312C6.62375 5.9625 5.9625 6.62375 5.15312 6.62375H1.47063C0.66125 6.62375 0 5.9625 0 5.15312C0 4.34375 0.66125 3.6825 1.47063 3.6825H5.15312ZM11.0588 5.15312C11.0588 4.34375 11.72 3.6825 12.5294 3.6825C13.3387 3.6825 14 4.34375 14 5.15312C14 5.9625 13.3387 6.62375 12.5294 6.62375H11.0588V5.15312ZM10.3175 5.15312C10.3175 5.9625 9.65625 6.62375 8.84688 6.62375C8.0375 6.62375 7.37625 5.9625 7.37625 5.15312V1.47062C7.37625 0.66125 8.0375 0 8.84688 0C9.65625 0 10.3175 0.66125 10.3175 1.47062V5.15312ZM8.84688 11.0588C9.65625 11.0588 10.3175 11.72 10.3175 12.5294C10.3175 13.3387 9.65625 14 8.84688 14C8.0375 14 7.37625 13.3387 7.37625 12.5294V11.0588H8.84688ZM8.84688 10.3175C8.0375 10.3175 7.37625 9.65625 7.37625 8.84688C7.37625 8.0375 8.0375 7.37625 8.84688 7.37625H12.5294C13.3387 7.37625 14 8.0375 14 8.84688C14 9.65625 13.3387 10.3175 12.5294 10.3175H8.84688Z" fill="currentColor"/>
</svg>
