<svg viewBox="0 0 18 22" xmlns="http://www.w3.org/2000/svg">
<path d="M4.37353 13.5781L13.547 11.6422L13.9313 13.4844L4.75791 15.4062L4.37353 13.5781ZM1.98291 9.5L9.17822 3.48594L10.3735 4.92969L3.17822 10.9437L1.98291 9.5ZM3.44541 11.3609L11.9438 7.39062L12.7267 9.10156L4.23291 13.0625L3.44541 11.3609ZM5.71885 0.499999L7.21885 1.625L1.62666 9.13906L0.126661 8.01406L5.71885 0.499999ZM4.75791 15.875L14.1329 15.875L14.1329 17.7359L4.75791 17.7359L4.75791 15.875ZM2.89697 19.625L15.9985 19.625L15.9985 14L17.8735 14L17.8735 21.5L1.02197 21.5L1.02197 14L2.89697 14L2.89697 19.625Z" fill="currentColor"/>
</svg>
