<svg viewBox="0 0 24 24" xmlns="http://www.w3.org/2000/svg">
<path d="M9 6.81067C9 7.22488 8.66421 7.56067 8.25 7.56067C7.83579 7.56067 7.5 7.22488 7.5 6.81067C7.5 6.39645 7.83579 6.06067 8.25 6.06067C8.66421 6.06067 9 6.39645 9 6.81067Z" fill="currentColor"/>
<path d="M9 9.81067C9 9.39645 8.66421 9.06067 8.25 9.06067C7.83579 9.06067 7.5 9.39645 7.5 9.81067V15.8107C7.5 16.2249 7.83579 16.5607 8.25 16.5607C8.66421 16.5607 9 16.2249 9 15.8107V9.81067Z" fill="currentColor"/>
<path d="M10.5 11.3208V15.8107C10.5 16.2249 10.8358 16.5607 11.25 16.5607C11.6642 16.5607 12 16.2249 12 15.8107V11.5562C12.6065 10.8119 13.7129 10.4112 14.7064 10.5531C15.2211 10.6266 15.6593 10.8407 15.9673 11.181C16.2696 11.5152 16.5 12.03 16.5 12.8107V15.8107C16.5 16.2249 16.8358 16.5607 17.25 16.5607C17.6642 16.5607 18 16.2249 18 15.8107V12.8107C18 11.7163 17.6679 10.8249 17.0796 10.1747C16.4969 9.53066 15.7164 9.18217 14.9186 9.06819C13.9443 8.92899 12.8744 9.13158 11.9815 9.64458C11.906 9.31029 11.6071 9.06067 11.25 9.06067C10.8358 9.06067 10.5 9.39645 10.5 9.81067V11.299C10.4999 11.3063 10.4999 11.3136 10.5 11.3208Z" fill="currentColor"/>
<path fill-rule="evenodd" clip-rule="evenodd" d="M1.50732 4.61988C1.50732 2.90599 2.90648 1.50684 4.62037 1.50684H19.3894C21.1033 1.50684 22.5025 2.90599 22.5025 4.61988V19.3889C22.5025 21.1028 21.1033 22.502 19.3894 22.502H4.62037C2.90648 22.502 1.50732 21.1028 1.50732 19.3889V4.61988ZM4.62037 3.00684C3.73491 3.00684 3.00732 3.73442 3.00732 4.61988V19.3889C3.00732 20.2744 3.73491 21.002 4.62037 21.002H19.3894C20.2749 21.002 21.0025 20.2744 21.0025 19.3889V4.61988C21.0025 3.73442 20.2749 3.00684 19.3894 3.00684H4.62037Z" fill="currentColor"/>
</svg>
