<svg viewBox="0 0 22 22" xmlns="http://www.w3.org/2000/svg">
<path fill-rule="evenodd" clip-rule="evenodd" d="M3.5 21.4738H10.0436C10.1074 21.4915 10.1747 21.5009 10.2441 21.5009C10.3136 21.5009 10.3809 21.4915 10.4447 21.4738H18.5C20.1569 21.4738 21.5 20.1307 21.5 18.4738V3.5C21.5 1.84315 20.1569 0.5 18.5 0.5H3.5C1.84315 0.5 0.5 1.84315 0.5 3.5V18.4738C0.5 20.1307 1.84315 21.4738 3.5 21.4738ZM18.5 2H3.5C2.67157 2 2 2.67157 2 3.5V18.4738C2 19.3022 2.67157 19.9738 3.5 19.9738H9.49414V12.5052H7.24414C6.82993 12.5052 6.49414 12.1694 6.49414 11.7552C6.49414 11.3409 6.82993 11.0052 7.24414 11.0052H9.49414V9.95955C9.49414 8.9519 9.73588 8.05713 10.3518 7.4164C10.973 6.77015 11.8498 6.5117 12.8375 6.5117H13.2441C13.6584 6.5117 13.9941 6.84749 13.9941 7.2617C13.9941 7.67591 13.6584 8.0117 13.2441 8.0117H12.8375C12.0964 8.0117 11.6764 8.20288 11.4332 8.45592C11.1846 8.71448 10.9941 9.16863 10.9941 9.95955V11.0052H13.2441C13.6584 11.0052 13.9941 11.3409 13.9941 11.7552C13.9941 12.1694 13.6584 12.5052 13.2441 12.5052H10.9941V19.9738H18.5C19.3284 19.9738 20 19.3022 20 18.4738V3.5C20 2.67157 19.3284 2 18.5 2Z" fill="currentColor"/>
</svg>
