<svg viewBox="0 0 14 11" xmlns="http://www.w3.org/2000/svg">
<path d="M13.7819 10.0852C14.01 10.2412 14.0687 10.5528 13.9131 10.7814C13.7574 11.0099 13.4463 11.0687 13.2182 10.9128L7.00005 6.66188L0.781864 10.9128C0.553763 11.0687 0.242678 11.0099 0.0870352 10.7814C-0.0686074 10.5528 -0.00986864 10.2412 0.218232 10.0852L6.71823 5.64164C6.88821 5.52543 7.11189 5.52543 7.28186 5.64164L13.7819 10.0852Z" fill="currentColor"/>
<path d="M13.7819 4.53073C14.01 4.68667 14.0687 4.99834 13.9131 5.22687C13.7574 5.4554 13.4463 5.51425 13.2182 5.35832L7.00005 1.10739L0.781864 5.35832C0.553763 5.51425 0.242678 5.4554 0.0870352 5.22687C-0.0686074 4.99834 -0.00986864 4.68667 0.218232 4.53073L6.71823 0.0871505C6.88821 -0.0290502 7.11189 -0.0290502 7.28186 0.0871505L13.7819 4.53073Z" fill="currentColor"/>
</svg>
