<svg viewBox="0 0 15 13" xmlns="http://www.w3.org/2000/svg">
<path fill-rule="evenodd" clip-rule="evenodd" d="M12.9999 0.00488281C12.9999 0.00488281 13 0.00488281 12.9999 0.00488281H13.0015C13.5537 0.00488281 14.0015 0.452598 14.0015 1.00488V11.0036C14.0015 11.5559 13.5537 12.0036 13.0015 12.0036H1.00147C0.449181 12.0036 0.00146484 11.5559 0.00146484 11.0036V1.00488C0.00146484 0.454232 0.446533 0.00753552 0.996561 0.00489456C0.998195 0.00488671 0.999829 0.00488281 1.00146 0.00488281H12.9999ZM1.00146 1.21345V11.0036L13.0015 11.0036V1.21053L7.35355 6.85844C7.15829 7.0537 6.84171 7.0537 6.64645 6.85844L1.00146 1.21345ZM2.20711 1.00488L11.7929 1.00488L7 5.79778L2.20711 1.00488Z" fill="currentColor"/>
</svg>
