<svg viewBox="0 0 22 22" xmlns="http://www.w3.org/2000/svg">
<path fill-rule="evenodd" clip-rule="evenodd" d="M4.25 2C3.00736 2 2 3.00736 2 4.25V17.75C2 18.9926 3.00736 20 4.25 20H17.75C18.9926 20 20 18.9926 20 17.75V11.7656C20 11.3514 20.3358 11.0156 20.75 11.0156C21.1642 11.0156 21.5 11.3514 21.5 11.7656V17.75C21.5 19.8211 19.8211 21.5 17.75 21.5H4.25C2.17893 21.5 0.5 19.8211 0.5 17.75V4.25C0.5 2.17893 2.17893 0.5 4.25 0.5H10.2543C10.6685 0.5 11.0043 0.835786 11.0043 1.25C11.0043 1.66421 10.6685 2 10.2543 2H4.25ZM13.999 1.25C13.999 0.835786 14.3348 0.5 14.749 0.5H20.75C20.9489 0.5 21.1397 0.579018 21.2803 0.71967C21.421 0.860322 21.5 1.05109 21.5 1.25V7.24651C21.5 7.66072 21.1642 7.99651 20.75 7.99651C20.3358 7.99651 20 7.66072 20 7.24651V3.06066L12.4167 10.644C12.1238 10.9369 11.6489 10.9369 11.356 10.644C11.0631 10.3511 11.0631 9.8762 11.356 9.58331L18.9393 2H14.749C14.3348 2 13.999 1.66421 13.999 1.25Z" fill="currentColor"/>
</svg>
