<svg viewBox="0 0 16 14" xmlns="http://www.w3.org/2000/svg">
<path fill-rule="evenodd" clip-rule="evenodd" d="M7.78547 1.04532C7.91944 0.982859 8.07422 0.982859 8.20819 1.04532L15.6624 4.52056C15.8588 4.58785 16 4.77395 16 4.99301V10.5239C16 10.7997 15.7762 11.0232 15.5002 11.0232C15.2242 11.0232 15.0004 10.7997 15.0004 10.5239V5.77407L12.9883 6.71213C12.9941 6.74239 12.9971 6.77361 12.9971 6.80554V10.5244C12.9971 11.5664 12.3584 12.4472 11.4554 13.0442C10.5486 13.6439 9.32496 13.9985 7.99847 13.9985C6.67198 13.9985 5.44831 13.6439 4.54149 13.0442C3.63851 12.4472 2.99988 11.5664 2.99988 10.5244V6.80554C2.99988 6.77411 3.00279 6.74336 3.00835 6.71354L0.288443 5.44548C0.112475 5.36344 0 5.187 0 4.99301C0 4.79901 0.112475 4.62257 0.288443 4.54053L7.78547 1.04532ZM3.99949 7.17562V10.5244C3.99949 11.1253 4.36795 11.7319 5.09321 12.2115C5.81463 12.6885 6.84035 12.9998 7.99847 12.9998C9.15659 12.9998 10.1823 12.6885 10.9037 12.2115C11.629 11.7319 11.9975 11.1253 11.9975 10.5244V7.17409L8.20819 8.94069C8.07422 9.00315 7.91944 9.00315 7.78547 8.94069L3.99949 7.17562ZM1.68169 4.99301L7.99683 7.93721L14.312 4.99301L7.99683 2.0488L1.68169 4.99301Z" fill="currentColor"/>
</svg>
