<svg viewBox="0 0 10 15" xmlns="http://www.w3.org/2000/svg">
<path d="M9.99817 1.49854C9.99817 1.22239 9.77431 0.998536 9.49817 0.998536C9.22203 0.998536 8.99817 1.22239 8.99817 1.49854V14.5008C8.99817 14.7769 9.22203 15.0008 9.49817 15.0008C9.77431 15.0008 9.99817 14.7769 9.99817 14.5008V1.49854Z" fill="currentColor"/>
<path d="M0.904404 14.7949C0.741984 15.0183 0.429275 15.0676 0.20595 14.9052C-0.017377 14.7428 -0.0667516 14.4301 0.0956668 14.2068L4.60988 7.99971L0.0956673 1.79266C-0.066751 1.56933 -0.0173764 1.25662 0.20595 1.0942C0.429276 0.931783 0.741985 0.981159 0.904404 1.20448L5.6325 7.70562C5.76001 7.88094 5.76001 8.11847 5.6325 8.29379L0.904404 14.7949Z" fill="currentColor"/>
</svg>
