<svg width="10" height="14" viewBox="0 0 10 14" fill="none" xmlns="http://www.w3.org/2000/svg">
<path d="M2.18244e-08 0.499285C9.73662e-09 0.223537 0.224177 -9.83361e-09 0.500714 -2.18869e-08C0.777251 -3.39402e-08 1.00143 0.223537 1.00143 0.499285L1.00143 13.4807C1.00143 13.7564 0.777251 13.98 0.500715 13.98C0.224178 13.98 6.02971e-07 13.7564 5.90883e-07 13.4807L2.18244e-08 0.499285Z" fill="black"/>
<path d="M9.09452 13.7946C9.25734 14.0175 9.57053 14.0666 9.79405 13.9043C10.0176 13.7419 10.0668 13.4296 9.90398 13.2067L5.12862 7.00998L9.90398 0.813237C10.0668 0.590349 10.0176 0.278052 9.79405 0.115701C9.57053 -0.0466484 9.25734 0.00242706 9.09452 0.225314L4.10442 6.71602C3.97645 6.89122 3.97645 7.12874 4.10442 7.30394L9.09452 13.7946Z" fill="black"/>
</svg>
