<svg viewBox="0 0 22 22" xmlns="http://www.w3.org/2000/svg">
<path fill-rule="evenodd" clip-rule="evenodd" d="M7.5 11C9.433 11 11 9.433 11 7.5C11 5.567 9.433 4 7.5 4C5.567 4 4 5.567 4 7.5C4 9.433 5.567 11 7.5 11ZM7.5 9.5C8.60457 9.5 9.5 8.60457 9.5 7.5C9.5 6.39543 8.60457 5.5 7.5 5.5C6.39543 5.5 5.5 6.39543 5.5 7.5C5.5 8.60457 6.39543 9.5 7.5 9.5Z" fill="currentColor"/>
<path fill-rule="evenodd" clip-rule="evenodd" d="M3.5 0.5C1.84315 0.5 0.5 1.84315 0.5 3.5V18.5C0.5 20.1569 1.84315 21.5 3.5 21.5H18.5C20.1569 21.5 21.5 20.1569 21.5 18.5V3.5C21.5 1.84315 20.1569 0.5 18.5 0.5H3.5ZM18.5 2H3.5C2.67157 2 2 2.67157 2 3.5V17.1893L6.09467 13.0947C6.23532 12.954 6.42609 12.875 6.625 12.875C6.82391 12.875 7.01468 12.954 7.15533 13.0947L10.125 16.0643L16.5947 9.59467C16.7353 9.45402 16.9261 9.375 17.125 9.375C17.3239 9.375 17.5147 9.45402 17.6553 9.59467L20 11.9393V3.5C20 2.67157 19.3284 2 18.5 2ZM20 14.0607L17.125 11.1857L10.6553 17.6553C10.5147 17.796 10.3239 17.875 10.125 17.875C9.92609 17.875 9.73532 17.796 9.59467 17.6553L6.625 14.6857L2.15198 19.1587C2.39589 19.6569 2.90788 20 3.5 20H18.5C19.3284 20 20 19.3284 20 18.5V14.0607Z" fill="currentColor"/>
</svg>
