<svg viewBox="0 0 19 19" xmlns="http://www.w3.org/2000/svg">
<path d="M9.62207 13.9677C9.27689 13.9677 8.99707 13.6879 8.99707 13.3427V10.2526H5.8427C5.49752 10.2526 5.2177 9.97274 5.2177 9.62756C5.2177 9.28239 5.49752 9.00256 5.8427 9.00256H8.99707V5.8427C8.99707 5.49752 9.27689 5.2177 9.62207 5.2177C9.96725 5.2177 10.2471 5.49752 10.2471 5.8427V9.00256H13.3427C13.6879 9.00256 13.9677 9.28239 13.9677 9.62756C13.9677 9.97274 13.6879 10.2526 13.3427 10.2526H10.2471V13.3427C10.2471 13.6879 9.96725 13.9677 9.62207 13.9677Z" fill="currentColor"/>
<path fill-rule="evenodd" clip-rule="evenodd" d="M19.0001 9.62512C19.0001 14.8028 14.8028 19.0001 9.62512 19.0001C4.44744 19.0001 0.250122 14.8028 0.250122 9.62512C0.250122 4.44744 4.44744 0.250122 9.62512 0.250122C14.8028 0.250122 19.0001 4.44744 19.0001 9.62512ZM17.7501 9.62512C17.7501 14.1124 14.1124 17.7501 9.62512 17.7501C5.1378 17.7501 1.50012 14.1124 1.50012 9.62512C1.50012 5.1378 5.1378 1.50012 9.62512 1.50012C14.1124 1.50012 17.7501 5.1378 17.7501 9.62512Z" fill="currentColor"/>
</svg>
