<svg viewBox="0 0 12 16" xmlns="http://www.w3.org/2000/svg">
<path d="M5 3.50781C5 3.23167 5.22386 3.00781 5.5 3.00781H6.5C6.77614 3.00781 7 3.23167 7 3.50781C7 3.78395 6.77614 4.00781 6.5 4.00781H5.5C5.22386 4.00781 5 3.78395 5 3.50781Z" fill="currentColor"/>
<path d="M4.5 11.9922C4.22386 11.9922 4 12.216 4 12.4922C4 12.7683 4.22386 12.9922 4.5 12.9922H7.5C7.77614 12.9922 8 12.7683 8 12.4922C8 12.216 7.77614 11.9922 7.5 11.9922H4.5Z" fill="currentColor"/>
<path fill-rule="evenodd" clip-rule="evenodd" d="M0.00146484 2.04041C0.00146484 0.891516 0.985826 0.00195312 2.13064 0.00195312H9.86922C11.014 0.00195312 11.9984 0.891516 11.9984 2.04041V13.9635C11.9984 15.1124 11.014 16.002 9.86922 16.002H2.13064C0.985825 16.002 0.00146484 15.1124 0.00146484 13.9635V2.04041ZM2.13064 1.00195C1.48336 1.00195 1.00146 1.49701 1.00146 2.04041V13.9635C1.00146 14.5069 1.48336 15.002 2.13064 15.002H9.86922C10.5165 15.002 10.9984 14.5069 10.9984 13.9635V2.04041C10.9984 1.49701 10.5165 1.00195 9.86922 1.00195H2.13064Z" fill="currentColor"/>
</svg>
