<?xml version="1.0" encoding="utf-8"?>
<svg xmlns="http://www.w3.org/2000/svg">
<symbol id="accordion-arrow-down" viewBox="0 0 22 10"><path d="M21.3791 0.5854C21.609 0.931539 21.516 1.39931 21.1714 1.63019L11.4214 9.12337C11.1694 9.29221 10.841 9.29221 10.589 9.12337L0.839024 1.63019C0.494436 1.39931 0.401422 0.931539 0.631274 0.5854C0.861124 0.239261 1.3268 0.145829 1.67139 0.376714L11.0052 7.59103L20.339 0.376714C20.6836 0.145829 21.1493 0.239261 21.3791 0.5854Z" fill="currentColor"/>
</symbol>
<symbol id="accordion-arrow-up" viewBox="0 0 22 10"><path d="M0.620859 9.4146C0.391008 9.06846 0.484022 8.60069 0.82861 8.3698L10.5786 0.876633C10.8306 0.707788 11.159 0.707788 11.411 0.876633L21.161 8.36981C21.5056 8.60069 21.5986 9.06846 21.3687 9.4146C21.1389 9.76074 20.6732 9.85417 20.3286 9.62329L10.9948 2.40897L1.66097 9.62328C1.31639 9.85417 0.85071 9.76074 0.620859 9.4146Z" fill="currentColor"/>
</symbol>
<symbol id="arrow-right-circle" viewBox="0 0 24 24">
<path d="M10.8214 17.7751C10.5316 18.071 10.0567 18.0759 9.76081 17.786C9.46491 17.4962 9.46002 17.0213 9.74988 16.7254L14.3786 12.0002L9.74988 7.27508C9.46002 6.97918 9.46491 6.50433 9.76081 6.21448C10.0567 5.92462 10.5316 5.92951 10.8214 6.22541L15.9643 11.4754C16.2499 11.767 16.2499 12.2335 15.9643 12.5251L10.8214 17.7751Z" fill="currentColor"/>
<path fill-rule="evenodd" clip-rule="evenodd" d="M12.0002 24.0002C5.37281 24.0002 0.000241419 18.6277 0.000239801 12.0002C0.000240091 5.37282 5.37281 0.000243326 12.0002 0.000243616C18.6277 0.000243906 24.0002 5.37282 24.0002 12.0002C24.0002 18.6277 18.6277 24.0002 12.0002 24.0002ZM12.0002 22.5002C6.20124 22.5002 1.50024 17.7992 1.50024 12.0002C1.50024 6.20124 6.20124 1.50024 12.0002 1.50024C17.7992 1.50024 22.5002 6.20124 22.5002 12.0002C22.5002 17.7992 17.7992 22.5002 12.0002 22.5002Z" fill="currentColor"/>

</symbol>
<symbol id="book" viewBox="0 0 15 16">
<path fill-rule="evenodd" clip-rule="evenodd" d="M15.0001 0.500004C15.0001 0.352844 14.9353 0.213156 14.8229 0.118154C14.7105 0.0231515 14.5619 -0.0175175 14.4168 0.006981L7.50006 1.17475L0.586201 0.00698673C0.44109 -0.0175227 0.292551 0.0231404 0.180157 0.118143C0.0677631 0.213145 0.00292969 0.352838 0.00292969 0.500004V14.3182C0.00292969 14.5622 0.179057 14.7706 0.419658 14.8112L7.40589 15.9912C7.46287 16.0021 7.52274 16.0033 7.58332 15.993L14.5833 14.8112C14.8239 14.7706 15.0001 14.5622 15.0001 14.3182V0.500004ZM8 14.9085L14.0001 13.8955V1.0915L8 2.1045V14.9085ZM1.00293 13.8956V1.09154L7 2.10445V14.9085L1.00293 13.8956Z" fill="currentColor"/>

</symbol>
<symbol id="brand-facebook" viewBox="0 0 22 22">
<path fill-rule="evenodd" clip-rule="evenodd" d="M3.5 21.4738H10.0436C10.1074 21.4915 10.1747 21.5009 10.2441 21.5009C10.3136 21.5009 10.3809 21.4915 10.4447 21.4738H18.5C20.1569 21.4738 21.5 20.1307 21.5 18.4738V3.5C21.5 1.84315 20.1569 0.5 18.5 0.5H3.5C1.84315 0.5 0.5 1.84315 0.5 3.5V18.4738C0.5 20.1307 1.84315 21.4738 3.5 21.4738ZM18.5 2H3.5C2.67157 2 2 2.67157 2 3.5V18.4738C2 19.3022 2.67157 19.9738 3.5 19.9738H9.49414V12.5052H7.24414C6.82993 12.5052 6.49414 12.1694 6.49414 11.7552C6.49414 11.3409 6.82993 11.0052 7.24414 11.0052H9.49414V9.95955C9.49414 8.9519 9.73588 8.05713 10.3518 7.4164C10.973 6.77015 11.8498 6.5117 12.8375 6.5117H13.2441C13.6584 6.5117 13.9941 6.84749 13.9941 7.2617C13.9941 7.67591 13.6584 8.0117 13.2441 8.0117H12.8375C12.0964 8.0117 11.6764 8.20288 11.4332 8.45592C11.1846 8.71448 10.9941 9.16863 10.9941 9.95955V11.0052H13.2441C13.6584 11.0052 13.9941 11.3409 13.9941 11.7552C13.9941 12.1694 13.6584 12.5052 13.2441 12.5052H10.9941V19.9738H18.5C19.3284 19.9738 20 19.3022 20 18.4738V3.5C20 2.67157 19.3284 2 18.5 2Z" fill="currentColor"/>

</symbol>
<symbol id="brand-github" viewBox="0 0 17 16">
<path d="M5.51378 12.8832C5.51378 12.9493 5.43734 13.0023 5.34096 13.0023C5.23128 13.0122 5.15484 12.9593 5.15484 12.8832C5.15484 12.817 5.23128 12.7641 5.32766 12.7641C5.42737 12.7541 5.51378 12.8071 5.51378 12.8832ZM4.48016 12.7343C4.45689 12.8005 4.52336 12.8766 4.62307 12.8964C4.70948 12.9295 4.80919 12.8964 4.82913 12.8302C4.84907 12.7641 4.78592 12.688 4.68622 12.6582C4.5998 12.635 4.50342 12.6681 4.48016 12.7343ZM5.94917 12.6781C5.85279 12.7012 5.78631 12.7641 5.79628 12.8402C5.80626 12.9063 5.89267 12.9493 5.99237 12.9262C6.08876 12.903 6.15523 12.8402 6.14526 12.774C6.13529 12.7111 6.04555 12.6681 5.94917 12.6781ZM8.13607 0C3.5263 0 0 3.48382 0 8.07266C0 11.7418 2.31984 14.8815 5.63343 15.9865C6.05885 16.0626 6.20841 15.8012 6.20841 15.5862C6.20841 15.3811 6.19844 14.2496 6.19844 13.5548C6.19844 13.5548 3.87195 14.0511 3.38338 12.5689C3.38338 12.5689 3.0045 11.6061 2.45943 11.358C2.45943 11.358 1.69834 10.8385 2.51261 10.8485C2.51261 10.8485 3.34018 10.9146 3.7955 11.7021C4.52336 12.9791 5.74311 12.6119 6.21838 12.3935C6.29482 11.8642 6.51085 11.4969 6.75015 11.2786C4.89228 11.0734 3.01779 10.8055 3.01779 7.62271C3.01779 6.71288 3.27038 6.25631 3.80215 5.67402C3.71574 5.45897 3.43324 4.5723 3.88856 3.42757C4.58319 3.21252 6.18182 4.32086 6.18182 4.32086C6.84653 4.13559 7.56109 4.03964 8.26901 4.03964C8.97693 4.03964 9.69149 4.13559 10.3562 4.32086C10.3562 4.32086 11.9548 3.20921 12.6495 3.42757C13.1048 4.57561 12.8223 5.45897 12.7359 5.67402C13.2676 6.25962 13.5934 6.71619 13.5934 7.62271C13.5934 10.8154 11.6358 11.0701 9.77791 11.2786C10.0837 11.5399 10.3429 12.0362 10.3429 12.8137C10.3429 13.9287 10.3329 15.3083 10.3329 15.5796C10.3329 15.7946 10.4858 16.056 10.9079 15.9799C14.2315 14.8815 16.4848 11.7418 16.4848 8.07266C16.4848 3.48382 12.7458 0 8.13607 0ZM3.2305 11.4109C3.18729 11.444 3.19726 11.5201 3.25376 11.5829C3.30694 11.6359 3.38338 11.659 3.42659 11.616C3.46979 11.5829 3.45982 11.5069 3.40332 11.444C3.35015 11.3911 3.2737 11.3679 3.2305 11.4109ZM2.87155 11.1429C2.84829 11.1859 2.88152 11.2389 2.948 11.272C3.00117 11.305 3.06764 11.2951 3.09091 11.2488C3.11417 11.2058 3.08094 11.1528 3.01447 11.1198C2.948 11.0999 2.89482 11.1098 2.87155 11.1429ZM3.94839 12.3207C3.89521 12.3637 3.91515 12.463 3.99159 12.5259C4.06804 12.602 4.16442 12.6119 4.20762 12.5589C4.25083 12.5159 4.23089 12.4167 4.16442 12.3538C4.0913 12.2777 3.99159 12.2678 3.94839 12.3207ZM3.5695 11.8344C3.51632 11.8675 3.51632 11.9535 3.5695 12.0296C3.62268 12.1057 3.71241 12.1388 3.75562 12.1057C3.8088 12.0627 3.8088 11.9767 3.75562 11.9006C3.70909 11.8245 3.62268 11.7914 3.5695 11.8344Z" fill="currentColor"/>

</symbol>
<symbol id="brand-linkedin" viewBox="0 0 24 24">
<path d="M9 6.81067C9 7.22488 8.66421 7.56067 8.25 7.56067C7.83579 7.56067 7.5 7.22488 7.5 6.81067C7.5 6.39645 7.83579 6.06067 8.25 6.06067C8.66421 6.06067 9 6.39645 9 6.81067Z" fill="currentColor"/>
<path d="M9 9.81067C9 9.39645 8.66421 9.06067 8.25 9.06067C7.83579 9.06067 7.5 9.39645 7.5 9.81067V15.8107C7.5 16.2249 7.83579 16.5607 8.25 16.5607C8.66421 16.5607 9 16.2249 9 15.8107V9.81067Z" fill="currentColor"/>
<path d="M10.5 11.3208V15.8107C10.5 16.2249 10.8358 16.5607 11.25 16.5607C11.6642 16.5607 12 16.2249 12 15.8107V11.5562C12.6065 10.8119 13.7129 10.4112 14.7064 10.5531C15.2211 10.6266 15.6593 10.8407 15.9673 11.181C16.2696 11.5152 16.5 12.03 16.5 12.8107V15.8107C16.5 16.2249 16.8358 16.5607 17.25 16.5607C17.6642 16.5607 18 16.2249 18 15.8107V12.8107C18 11.7163 17.6679 10.8249 17.0796 10.1747C16.4969 9.53066 15.7164 9.18217 14.9186 9.06819C13.9443 8.92899 12.8744 9.13158 11.9815 9.64458C11.906 9.31029 11.6071 9.06067 11.25 9.06067C10.8358 9.06067 10.5 9.39645 10.5 9.81067V11.299C10.4999 11.3063 10.4999 11.3136 10.5 11.3208Z" fill="currentColor"/>
<path fill-rule="evenodd" clip-rule="evenodd" d="M1.50732 4.61988C1.50732 2.90599 2.90648 1.50684 4.62037 1.50684H19.3894C21.1033 1.50684 22.5025 2.90599 22.5025 4.61988V19.3889C22.5025 21.1028 21.1033 22.502 19.3894 22.502H4.62037C2.90648 22.502 1.50732 21.1028 1.50732 19.3889V4.61988ZM4.62037 3.00684C3.73491 3.00684 3.00732 3.73442 3.00732 4.61988V19.3889C3.00732 20.2744 3.73491 21.002 4.62037 21.002H19.3894C20.2749 21.002 21.0025 20.2744 21.0025 19.3889V4.61988C21.0025 3.73442 20.2749 3.00684 19.3894 3.00684H4.62037Z" fill="currentColor"/>

</symbol>
<symbol id="brand-slack" viewBox="0 0 14 14">
<path d="M2.94125 8.84688C2.94125 9.65625 2.28 10.3175 1.47063 10.3175C0.66125 10.3175 0 9.65625 0 8.84688C0 8.0375 0.66125 7.37625 1.47063 7.37625H2.94125V8.84688ZM3.6825 8.84688C3.6825 8.0375 4.34375 7.37625 5.15312 7.37625C5.9625 7.37625 6.62375 8.0375 6.62375 8.84688V12.5294C6.62375 13.3387 5.9625 14 5.15312 14C4.34375 14 3.6825 13.3387 3.6825 12.5294V8.84688ZM5.15312 2.94125C4.34375 2.94125 3.6825 2.28 3.6825 1.47062C3.6825 0.66125 4.34375 0 5.15312 0C5.9625 0 6.62375 0.66125 6.62375 1.47062V2.94125H5.15312ZM5.15312 3.6825C5.9625 3.6825 6.62375 4.34375 6.62375 5.15312C6.62375 5.9625 5.9625 6.62375 5.15312 6.62375H1.47063C0.66125 6.62375 0 5.9625 0 5.15312C0 4.34375 0.66125 3.6825 1.47063 3.6825H5.15312ZM11.0588 5.15312C11.0588 4.34375 11.72 3.6825 12.5294 3.6825C13.3387 3.6825 14 4.34375 14 5.15312C14 5.9625 13.3387 6.62375 12.5294 6.62375H11.0588V5.15312ZM10.3175 5.15312C10.3175 5.9625 9.65625 6.62375 8.84688 6.62375C8.0375 6.62375 7.37625 5.9625 7.37625 5.15312V1.47062C7.37625 0.66125 8.0375 0 8.84688 0C9.65625 0 10.3175 0.66125 10.3175 1.47062V5.15312ZM8.84688 11.0588C9.65625 11.0588 10.3175 11.72 10.3175 12.5294C10.3175 13.3387 9.65625 14 8.84688 14C8.0375 14 7.37625 13.3387 7.37625 12.5294V11.0588H8.84688ZM8.84688 10.3175C8.0375 10.3175 7.37625 9.65625 7.37625 8.84688C7.37625 8.0375 8.0375 7.37625 8.84688 7.37625H12.5294C13.3387 7.37625 14 8.0375 14 8.84688C14 9.65625 13.3387 10.3175 12.5294 10.3175H8.84688Z" fill="currentColor"/>

</symbol>
<symbol id="brand-stack-overflow" viewBox="0 0 18 22">
<path d="M4.37353 13.5781L13.547 11.6422L13.9313 13.4844L4.75791 15.4062L4.37353 13.5781ZM1.98291 9.5L9.17822 3.48594L10.3735 4.92969L3.17822 10.9437L1.98291 9.5ZM3.44541 11.3609L11.9438 7.39062L12.7267 9.10156L4.23291 13.0625L3.44541 11.3609ZM5.71885 0.499999L7.21885 1.625L1.62666 9.13906L0.126661 8.01406L5.71885 0.499999ZM4.75791 15.875L14.1329 15.875L14.1329 17.7359L4.75791 17.7359L4.75791 15.875ZM2.89697 19.625L15.9985 19.625L15.9985 14L17.8735 14L17.8735 21.5L1.02197 21.5L1.02197 14L2.89697 14L2.89697 19.625Z" fill="currentColor"/>

</symbol>
<symbol id="brand-twitter" viewBox="0 0 22 22">
<path fill-rule="evenodd" clip-rule="evenodd" d="M15.9563 5.75476C16.105 5.75476 16.4038 5.75476 16.7026 5.90491C16.8521 6.05469 17.0015 6.20483 17.0015 6.50476C17.0015 7.40491 16.4038 8.30469 15.9563 8.75476C15.9563 10.7048 15.0598 12.8047 13.7158 14.3047C12.5205 15.6549 11.0271 16.2548 9.38428 16.2548C7.74146 16.2548 6.24805 15.5048 5.50098 15.2048C5.29517 14.9979 5.15967 14.791 5.14502 14.535C5.13843 14.4197 5.15601 14.2944 5.20215 14.1549C5.20215 13.9875 5.34131 13.8671 5.51636 13.7931C5.65552 13.7341 5.81665 13.7048 5.94922 13.7048C6.54688 13.8546 7.1438 13.2548 7.59204 12.8047C7.44263 12.5048 7.1438 12.3546 6.99438 12.0547C5.7998 10.8546 4.75464 8.60461 5.05273 6.35461C5.20215 6.05469 5.35156 5.90491 5.65039 5.75476C5.94922 5.75476 6.24805 5.75476 6.39746 6.05469C6.86914 6.62415 7.70044 7.19324 8.62476 7.61072C9.16235 7.85315 9.73145 8.04468 10.2808 8.15491L10.283 8.14832C10.4316 7.70044 10.5803 7.25256 10.8777 6.80469C11.7742 5.75476 13.5664 5.45483 14.761 6.35461C14.8511 6.30957 14.9551 6.26416 15.0686 6.21472C15.3308 6.10046 15.6436 5.96423 15.9563 5.75476ZM12.6699 13.2548C14.0146 11.9049 14.4622 9.80469 14.4622 8.45483C14.4622 8.30469 14.6116 8.00476 14.761 7.85461C14.6116 7.85461 14.3127 7.85461 14.1641 7.70483C13.5664 7.10461 12.5205 7.25476 12.073 7.70483C11.7742 8.00476 11.6248 8.30469 11.7742 8.75476C11.8555 8.91736 11.8481 9.07996 11.8005 9.21875C11.761 9.33594 11.6929 9.43591 11.6248 9.50476C11.4753 9.65491 11.3259 9.80469 11.0271 9.80469C9.68311 9.65491 8.04028 9.20483 6.69629 8.30469C7.1438 10.2548 8.63721 11.9049 9.08545 12.0547C9.38428 12.0547 9.68311 12.2048 9.68311 12.5048C9.83252 12.9548 9.68311 13.2548 9.38428 13.4049C9.23486 13.5547 8.93604 13.7048 8.78662 13.8546C8.63721 14.0051 8.48706 14.1179 8.33691 14.2307C8.18823 14.3428 8.03955 14.4552 7.89087 14.6046C9.83252 15.0547 11.3259 14.6046 12.6699 13.2548Z" fill="currentColor"/>
<path fill-rule="evenodd" clip-rule="evenodd" d="M3.61426 0.503662C1.89966 0.503662 0.5 1.90332 0.5 3.61755V18.392C0.5 20.1062 1.89966 21.5059 3.61426 21.5059H18.3887C20.1025 21.5059 21.5022 20.1062 21.5022 18.392V3.61755C21.5022 1.90332 20.1025 0.503662 18.3887 0.503662H3.61426ZM2 3.61755C2 2.73169 2.72803 2.00366 3.61426 2.00366H18.3887C19.2742 2.00366 20.0022 2.73169 20.0022 3.61755V18.392C20.0022 19.2778 19.2742 20.0059 18.3887 20.0059H3.61426C2.72803 20.0059 2 19.2778 2 18.392V3.61755Z" fill="currentColor"/>

</symbol>
<symbol id="bubble" viewBox="0 0 16 16">
<path d="M4 4.5C4 4.22386 4.22386 4 4.5 4H8.5C8.77614 4 9 4.22386 9 4.5C9 4.77614 8.77614 5 8.5 5H4.5C4.22386 5 4 4.77614 4 4.5Z" fill="currentColor"/>
<path d="M4.5 7C4.22386 7 4 7.22386 4 7.5C4 7.77614 4.22386 8 4.5 8H10.5005C10.7766 8 11.0005 7.77614 11.0005 7.5C11.0005 7.22386 10.7766 7 10.5005 7H4.5Z" fill="currentColor"/>
<path fill-rule="evenodd" clip-rule="evenodd" d="M2.46763e-05 2.31818C2.46763e-05 1.04204 1.04206 0 2.3182 0H13.6818C14.958 0 16 1.04204 16 2.31818V10.6947C16 11.9739 14.9549 13.0044 13.6818 13.0044H8.18465L4.82276 15.88C4.67444 16.0068 4.46587 16.0358 4.28859 15.9541C4.11132 15.8725 3.99776 15.6952 3.99776 15.5V13.0044H2.31818C1.0451 13.0044 0 11.9739 0 10.6947L2.46763e-05 2.31818ZM2.3182 1C1.59435 1 1.00002 1.59432 1.00002 2.31818L1 10.6947C1 11.4155 1.59126 12.0044 2.31818 12.0044H4.49776C4.7739 12.0044 4.99776 12.2283 4.99776 12.5044V14.4144L7.67499 12.1244C7.76555 12.047 7.88081 12.0044 7.99999 12.0044H13.6818C14.4087 12.0044 15 11.4155 15 10.6947V2.31818C15 1.59432 14.4057 1 13.6818 1H2.3182Z" fill="currentColor"/>

</symbol>
<symbol id="chevron-down" viewBox="0 0 12.811 6.687">
    <g transform="translate(1.404 1.407)">
        <path d="M0,0,4,4.927,0,10" transform="translate(10 0) rotate(90)" fill="none" stroke="currentColor" stroke-linecap="round" stroke-miterlimit="10" stroke-width="2"/>
    </g>

</symbol>
<symbol id="chevron-right" viewBox="0 0 8 13">
<path d="M1.5 11.6899L6.5 6.68994L1.5 1.68994" stroke="currentColor" fill="none" stroke-width="2"/>

</symbol>
<symbol id="double-up" viewBox="0 0 14 11">
<path d="M13.7819 10.0852C14.01 10.2412 14.0687 10.5528 13.9131 10.7814C13.7574 11.0099 13.4463 11.0687 13.2182 10.9128L7.00005 6.66188L0.781864 10.9128C0.553763 11.0687 0.242678 11.0099 0.0870352 10.7814C-0.0686074 10.5528 -0.00986864 10.2412 0.218232 10.0852L6.71823 5.64164C6.88821 5.52543 7.11189 5.52543 7.28186 5.64164L13.7819 10.0852Z" fill="currentColor"/>
<path d="M13.7819 4.53073C14.01 4.68667 14.0687 4.99834 13.9131 5.22687C13.7574 5.4554 13.4463 5.51425 13.2182 5.35832L7.00005 1.10739L0.781864 5.35832C0.553763 5.51425 0.242678 5.4554 0.0870352 5.22687C-0.0686074 4.99834 -0.00986864 4.68667 0.218232 4.53073L6.71823 0.0871505C6.88821 -0.0290502 7.11189 -0.0290502 7.28186 0.0871505L13.7819 4.53073Z" fill="currentColor"/>

</symbol>
<symbol id="envelope" viewBox="0 0 15 13">
<path fill-rule="evenodd" clip-rule="evenodd" d="M12.9999 0.00488281C12.9999 0.00488281 13 0.00488281 12.9999 0.00488281H13.0015C13.5537 0.00488281 14.0015 0.452598 14.0015 1.00488V11.0036C14.0015 11.5559 13.5537 12.0036 13.0015 12.0036H1.00147C0.449181 12.0036 0.00146484 11.5559 0.00146484 11.0036V1.00488C0.00146484 0.454232 0.446533 0.00753552 0.996561 0.00489456C0.998195 0.00488671 0.999829 0.00488281 1.00146 0.00488281H12.9999ZM1.00146 1.21345V11.0036L13.0015 11.0036V1.21053L7.35355 6.85844C7.15829 7.0537 6.84171 7.0537 6.64645 6.85844L1.00146 1.21345ZM2.20711 1.00488L11.7929 1.00488L7 5.79778L2.20711 1.00488Z" fill="currentColor"/>

</symbol>
<symbol id="external-link" viewBox="0 0 22 22">
<path fill-rule="evenodd" clip-rule="evenodd" d="M4.25 2C3.00736 2 2 3.00736 2 4.25V17.75C2 18.9926 3.00736 20 4.25 20H17.75C18.9926 20 20 18.9926 20 17.75V11.7656C20 11.3514 20.3358 11.0156 20.75 11.0156C21.1642 11.0156 21.5 11.3514 21.5 11.7656V17.75C21.5 19.8211 19.8211 21.5 17.75 21.5H4.25C2.17893 21.5 0.5 19.8211 0.5 17.75V4.25C0.5 2.17893 2.17893 0.5 4.25 0.5H10.2543C10.6685 0.5 11.0043 0.835786 11.0043 1.25C11.0043 1.66421 10.6685 2 10.2543 2H4.25ZM13.999 1.25C13.999 0.835786 14.3348 0.5 14.749 0.5H20.75C20.9489 0.5 21.1397 0.579018 21.2803 0.71967C21.421 0.860322 21.5 1.05109 21.5 1.25V7.24651C21.5 7.66072 21.1642 7.99651 20.75 7.99651C20.3358 7.99651 20 7.66072 20 7.24651V3.06066L12.4167 10.644C12.1238 10.9369 11.6489 10.9369 11.356 10.644C11.0631 10.3511 11.0631 9.8762 11.356 9.58331L18.9393 2H14.749C14.3348 2 13.999 1.66421 13.999 1.25Z" fill="currentColor"/>

</symbol>
<symbol id="facebook-filled" viewBox="0 0 17 17">
<path d="M13.8493 0.680176H2.16251C1.87923 0.679998 1.59869 0.735636 1.33692 0.84391C1.07515 0.952183 0.83729 1.11097 0.636918 1.3112C0.436547 1.51143 0.277596 1.74917 0.169148 2.01085C0.0607011 2.27253 0.00488276 2.55301 0.00488281 2.83626L0.00488281 14.5221C0.00488281 15.0939 0.23206 15.6423 0.636439 16.0466C1.04082 16.451 1.58927 16.6781 2.16115 16.6781H7.92836L7.93852 10.9615H6.45066C6.40468 10.9616 6.35914 10.9527 6.31663 10.9351C6.27411 10.9176 6.23547 10.8919 6.20289 10.8595C6.17032 10.827 6.14445 10.7885 6.12677 10.746C6.1091 10.7036 6.09995 10.6581 6.09986 10.6121L6.09309 8.76956C6.09291 8.72338 6.10186 8.67763 6.1194 8.63491C6.13695 8.5922 6.16277 8.55337 6.19536 8.52065C6.22795 8.48794 6.26668 8.46198 6.30933 8.44427C6.35198 8.42655 6.39771 8.41744 6.44389 8.41744H7.92836V6.63921C7.92836 4.57318 9.19069 3.44774 11.0341 3.44774H12.547C12.64 3.44774 12.7293 3.4847 12.7951 3.55048C12.8608 3.61626 12.8978 3.70548 12.8978 3.79851V5.3526C12.8978 5.44551 12.8609 5.53463 12.7953 5.60039C12.7296 5.66615 12.6406 5.70319 12.5477 5.70337H11.6165C10.6142 5.70337 10.4198 6.17738 10.4198 6.87892V8.42015H12.6228C12.6723 8.4202 12.7212 8.43071 12.7663 8.45099C12.8114 8.47127 12.8518 8.50086 12.8846 8.53782C12.9175 8.57478 12.9422 8.61828 12.9571 8.66545C12.9719 8.71263 12.9767 8.76242 12.9709 8.81155L12.7522 10.6541C12.7421 10.7393 12.7011 10.8179 12.6369 10.8749C12.5728 10.932 12.4899 10.9635 12.4041 10.9636H10.43L10.4198 16.6802H13.8493C14.421 16.6802 14.9693 16.4531 15.3735 16.0489C15.7778 15.6447 16.0049 15.0964 16.0049 14.5248V2.83626C16.0049 2.26455 15.7778 1.71624 15.3736 1.31192C14.9693 0.907593 14.4211 0.680356 13.8493 0.680176Z" fill="currentColor"/>

</symbol>
<symbol id="graduate-cap" viewBox="0 0 16 14">
<path fill-rule="evenodd" clip-rule="evenodd" d="M7.78547 1.04532C7.91944 0.982859 8.07422 0.982859 8.20819 1.04532L15.6624 4.52056C15.8588 4.58785 16 4.77395 16 4.99301V10.5239C16 10.7997 15.7762 11.0232 15.5002 11.0232C15.2242 11.0232 15.0004 10.7997 15.0004 10.5239V5.77407L12.9883 6.71213C12.9941 6.74239 12.9971 6.77361 12.9971 6.80554V10.5244C12.9971 11.5664 12.3584 12.4472 11.4554 13.0442C10.5486 13.6439 9.32496 13.9985 7.99847 13.9985C6.67198 13.9985 5.44831 13.6439 4.54149 13.0442C3.63851 12.4472 2.99988 11.5664 2.99988 10.5244V6.80554C2.99988 6.77411 3.00279 6.74336 3.00835 6.71354L0.288443 5.44548C0.112475 5.36344 0 5.187 0 4.99301C0 4.79901 0.112475 4.62257 0.288443 4.54053L7.78547 1.04532ZM3.99949 7.17562V10.5244C3.99949 11.1253 4.36795 11.7319 5.09321 12.2115C5.81463 12.6885 6.84035 12.9998 7.99847 12.9998C9.15659 12.9998 10.1823 12.6885 10.9037 12.2115C11.629 11.7319 11.9975 11.1253 11.9975 10.5244V7.17409L8.20819 8.94069C8.07422 9.00315 7.91944 9.00315 7.78547 8.94069L3.99949 7.17562ZM1.68169 4.99301L7.99683 7.93721L14.312 4.99301L7.99683 2.0488L1.68169 4.99301Z" fill="currentColor"/>

</symbol>
<symbol id="i-circle" viewBox="0 0 16 16">
<path fill-rule="evenodd" clip-rule="evenodd" d="M15 8C15 4.134 11.866 0.999999 8 0.999999C4.134 0.999999 1 4.134 1 8C1 11.866 4.134 15 8 15C11.866 15 15 11.866 15 8ZM16 8C16 3.58171 12.4183 0 8 0C3.58171 0 0 3.58171 0 8C0 12.4183 3.58171 16 8 16C12.4183 16 16 12.4183 16 8ZM9 5.00025C9 4.44703 8.552 3.99805 8 3.99805C7.448 3.99805 7 4.44703 7 5.00025C7 5.55346 7.448 6.00245 8 6.00245C8.552 6.00245 9 5.55346 9 5.00025ZM8 11.998C7.44772 11.998 7 11.5493 7 10.9958V7.98924C7 7.43574 7.44772 7 8 7C8.55229 7 9 7.43574 9 7.98924V10.9958C9 11.5493 8.55228 11.998 8 11.998Z" fill="currentColor"/>

</symbol>
<symbol id="linkedin-filled" viewBox="0 0 17 17">
<path d="M14.5576 0.680176H1.45216C1.06832 0.680176 0.700199 0.832657 0.428781 1.10407C0.157364 1.37549 0.00488281 1.74361 0.00488281 2.12746L0.00488281 15.2329C0.00488281 15.6167 0.157364 15.9849 0.428781 16.2563C0.700199 16.5277 1.06832 16.6802 1.45216 16.6802H14.5576C14.9414 16.6802 15.3096 16.5277 15.581 16.2563C15.8524 15.9849 16.0049 15.6167 16.0049 15.2329V2.12746C16.0049 1.74361 15.8524 1.37549 15.581 1.10407C15.3096 0.832657 14.9414 0.680176 14.5576 0.680176ZM4.95625 14.496C4.95625 14.6078 4.91187 14.7149 4.83287 14.7939C4.75387 14.8729 4.64672 14.9173 4.535 14.9173H2.74164C2.62992 14.9173 2.52278 14.8729 2.44378 14.7939C2.36478 14.7149 2.3204 14.6078 2.3204 14.496V6.97859C2.3204 6.86687 2.36478 6.75972 2.44378 6.68072C2.52278 6.60172 2.62992 6.55734 2.74164 6.55734H4.535C4.64672 6.55734 4.75387 6.60172 4.83287 6.68072C4.91187 6.75972 4.95625 6.86687 4.95625 6.97859V14.496ZM3.63832 5.85029C3.30144 5.85029 2.97213 5.7504 2.69203 5.56324C2.41193 5.37608 2.19361 5.11006 2.0647 4.79883C1.93578 4.4876 1.90205 4.14512 1.96777 3.81472C2.03349 3.48431 2.19571 3.18082 2.43392 2.94261C2.67213 2.7044 2.97562 2.54218 3.30603 2.47646C3.63643 2.41074 3.97891 2.44447 4.29014 2.57339C4.60137 2.7023 4.86739 2.92062 5.05455 3.20072C5.24171 3.48082 5.3416 3.81013 5.3416 4.14701C5.3416 4.37069 5.29755 4.59218 5.21195 4.79883C5.12635 5.00548 5.00089 5.19325 4.84272 5.35141C4.68456 5.50958 4.49679 5.63504 4.29014 5.72064C4.08349 5.80624 3.862 5.85029 3.63832 5.85029ZM14.326 14.5292C14.326 14.632 14.2852 14.7305 14.2125 14.8032C14.1399 14.8758 14.0413 14.9166 13.9386 14.9166H12.0145C11.9118 14.9166 11.8133 14.8758 11.7406 14.8032C11.668 14.7305 11.6271 14.632 11.6271 14.5292V11.0042C11.6271 10.4779 11.7816 8.70151 10.253 8.70151C9.06715 8.70151 8.82672 9.92056 8.77864 10.4624V14.5258C8.77864 14.6286 8.73783 14.7271 8.66518 14.7998C8.59253 14.8724 8.49399 14.9132 8.39125 14.9132H6.53017C6.42743 14.9132 6.3289 14.8724 6.25625 14.7998C6.1836 14.7271 6.14279 14.6286 6.14279 14.5258V6.94608C6.14279 6.84334 6.1836 6.74481 6.25625 6.67216C6.3289 6.59951 6.42743 6.55869 6.53017 6.55869H8.39125C8.49399 6.55869 8.59253 6.59951 8.66518 6.67216C8.73783 6.74481 8.77864 6.84334 8.77864 6.94608V7.60166C9.04579 7.19784 9.4188 6.87523 9.8569 6.66907C10.295 6.46292 10.7814 6.38116 11.2628 6.43273C14.3436 6.43273 14.326 9.31103 14.326 10.8924V14.5299V14.5292Z" fill="currentColor"/>

</symbol>
<symbol id="pagination-left-end" viewBox="0 0 10 14">
<path d="M2.18244e-08 0.499285C9.73662e-09 0.223537 0.224177 -9.83361e-09 0.500714 -2.18869e-08C0.777251 -3.39402e-08 1.00143 0.223537 1.00143 0.499285L1.00143 13.4807C1.00143 13.7564 0.777251 13.98 0.500715 13.98C0.224178 13.98 6.02971e-07 13.7564 5.90883e-07 13.4807L2.18244e-08 0.499285Z" fill="black"/>
<path d="M9.09452 13.7946C9.25734 14.0175 9.57053 14.0666 9.79405 13.9043C10.0176 13.7419 10.0668 13.4296 9.90398 13.2067L5.12862 7.00998L9.90398 0.813237C10.0668 0.590349 10.0176 0.278052 9.79405 0.115701C9.57053 -0.0466484 9.25734 0.00242706 9.09452 0.225314L4.10442 6.71602C3.97645 6.89122 3.97645 7.12874 4.10442 7.30394L9.09452 13.7946Z" fill="black"/>

</symbol>
<symbol id="pagination-left" viewBox="0 0 7 14">
<path fill-rule="evenodd" clip-rule="evenodd" d="M6.27633 0.0839534C6.04564 -0.0691609 5.73402 -0.00699033 5.58032 0.222815L0.584223 6.72282C0.471926 6.89071 0.471926 7.10939 0.584223 7.27729L5.58032 13.7773C5.73403 14.0071 6.04564 14.0693 6.27633 13.9162C6.50702 13.763 6.56943 13.4526 6.41572 13.2228L1.60505 7.00005L6.41572 0.777291C6.56943 0.547485 6.50702 0.237068 6.27633 0.0839534Z" fill="currentColor"/>

</symbol>
<symbol id="pagination-right-end" viewBox="0 0 10 15">
<path d="M9.99817 1.49854C9.99817 1.22239 9.77431 0.998536 9.49817 0.998536C9.22203 0.998536 8.99817 1.22239 8.99817 1.49854V14.5008C8.99817 14.7769 9.22203 15.0008 9.49817 15.0008C9.77431 15.0008 9.99817 14.7769 9.99817 14.5008V1.49854Z" fill="currentColor"/>
<path d="M0.904404 14.7949C0.741984 15.0183 0.429275 15.0676 0.20595 14.9052C-0.017377 14.7428 -0.0667516 14.4301 0.0956668 14.2068L4.60988 7.99971L0.0956673 1.79266C-0.066751 1.56933 -0.0173764 1.25662 0.20595 1.0942C0.429276 0.931783 0.741985 0.981159 0.904404 1.20448L5.6325 7.70562C5.76001 7.88094 5.76001 8.11847 5.6325 8.29379L0.904404 14.7949Z" fill="currentColor"/>

</symbol>
<symbol id="pagination-right" viewBox="0 0 7 14">
<path fill-rule="evenodd" clip-rule="evenodd" d="M0.721736 0.0842168C0.950643 -0.069116 1.2601 -0.0072407 1.41293 0.222419L6.41611 6.72218C6.52796 6.89026 6.52796 7.10937 6.41611 7.27745L1.41293 13.7777C1.2601 14.0073 0.950641 14.0692 0.721735 13.9159C0.492829 13.7626 0.431156 13.4521 0.583986 13.2224L5.40241 6.99981L0.583987 0.777686C0.431158 0.548027 0.49283 0.23755 0.721736 0.0842168Z" fill="currentColor"/>

</symbol>
<symbol id="picture-placeholder" viewBox="0 0 22 22">
<path fill-rule="evenodd" clip-rule="evenodd" d="M7.5 11C9.433 11 11 9.433 11 7.5C11 5.567 9.433 4 7.5 4C5.567 4 4 5.567 4 7.5C4 9.433 5.567 11 7.5 11ZM7.5 9.5C8.60457 9.5 9.5 8.60457 9.5 7.5C9.5 6.39543 8.60457 5.5 7.5 5.5C6.39543 5.5 5.5 6.39543 5.5 7.5C5.5 8.60457 6.39543 9.5 7.5 9.5Z" fill="currentColor"/>
<path fill-rule="evenodd" clip-rule="evenodd" d="M3.5 0.5C1.84315 0.5 0.5 1.84315 0.5 3.5V18.5C0.5 20.1569 1.84315 21.5 3.5 21.5H18.5C20.1569 21.5 21.5 20.1569 21.5 18.5V3.5C21.5 1.84315 20.1569 0.5 18.5 0.5H3.5ZM18.5 2H3.5C2.67157 2 2 2.67157 2 3.5V17.1893L6.09467 13.0947C6.23532 12.954 6.42609 12.875 6.625 12.875C6.82391 12.875 7.01468 12.954 7.15533 13.0947L10.125 16.0643L16.5947 9.59467C16.7353 9.45402 16.9261 9.375 17.125 9.375C17.3239 9.375 17.5147 9.45402 17.6553 9.59467L20 11.9393V3.5C20 2.67157 19.3284 2 18.5 2ZM20 14.0607L17.125 11.1857L10.6553 17.6553C10.5147 17.796 10.3239 17.875 10.125 17.875C9.92609 17.875 9.73532 17.796 9.59467 17.6553L6.625 14.6857L2.15198 19.1587C2.39589 19.6569 2.90788 20 3.5 20H18.5C19.3284 20 20 19.3284 20 18.5V14.0607Z" fill="currentColor"/>

</symbol>
<symbol id="plus-circle" viewBox="0 0 19 19">
<path d="M9.62207 13.9677C9.27689 13.9677 8.99707 13.6879 8.99707 13.3427V10.2526H5.8427C5.49752 10.2526 5.2177 9.97274 5.2177 9.62756C5.2177 9.28239 5.49752 9.00256 5.8427 9.00256H8.99707V5.8427C8.99707 5.49752 9.27689 5.2177 9.62207 5.2177C9.96725 5.2177 10.2471 5.49752 10.2471 5.8427V9.00256H13.3427C13.6879 9.00256 13.9677 9.28239 13.9677 9.62756C13.9677 9.97274 13.6879 10.2526 13.3427 10.2526H10.2471V13.3427C10.2471 13.6879 9.96725 13.9677 9.62207 13.9677Z" fill="currentColor"/>
<path fill-rule="evenodd" clip-rule="evenodd" d="M19.0001 9.62512C19.0001 14.8028 14.8028 19.0001 9.62512 19.0001C4.44744 19.0001 0.250122 14.8028 0.250122 9.62512C0.250122 4.44744 4.44744 0.250122 9.62512 0.250122C14.8028 0.250122 19.0001 4.44744 19.0001 9.62512ZM17.7501 9.62512C17.7501 14.1124 14.1124 17.7501 9.62512 17.7501C5.1378 17.7501 1.50012 14.1124 1.50012 9.62512C1.50012 5.1378 5.1378 1.50012 9.62512 1.50012C14.1124 1.50012 17.7501 5.1378 17.7501 9.62512Z" fill="currentColor"/>

</symbol>
<symbol id="question-circle" viewBox="0 0 16 16">
<path fill-rule="evenodd" clip-rule="evenodd" d="M8 15C11.866 15 15 11.866 15 8C15 4.134 11.866 1 8 1C4.134 1 1 4.134 1 8C1 11.866 4.134 15 8 15ZM8 16C12.4183 16 16 12.4183 16 8C16 3.58171 12.4183 0 8 0C3.58171 0 0 3.58171 0 8C0 12.4183 3.58171 16 8 16Z" fill="currentColor"/>
<path d="M6.99363 10C6.99363 9.42463 7.06369 8.97143 7.20382 8.64039C7.34395 8.30542 7.57113 8.01576 7.88535 7.77143C8.19958 7.52709 8.43737 7.30443 8.59873 7.10345C8.76433 6.89852 8.84713 6.67389 8.84713 6.42956C8.84713 5.83448 8.55202 5.5 8 5.5C7.74522 5.5 7.41146 5.67253 7.20382 5.81366C6.99618 5.95479 6.76773 6.20493 6.75924 6.50049L5 6C5 5.5 5.27601 5.09951 5.80255 4.66207C6.32909 4.22069 7.06794 4 8.01911 4C8.96603 4 9.69851 4.20296 10.2166 4.60887C10.7389 5.01478 11 5.59212 11 6.34089C11 6.66798 10.9299 6.96552 10.7898 7.2335C10.6497 7.50148 10.4246 7.77537 10.1146 8.05517L9.38217 8.68769C9.1741 8.87291 9.02972 9.06404 8.94904 9.26108C8.86837 9.45419 8.82378 9.70049 8.81529 10H6.99363Z" fill="currentColor"/>
<path fill-rule="evenodd" clip-rule="evenodd" d="M9 12C9 11.448 8.552 11 8 11C7.448 11 7 11.448 7 12C7 12.552 7.448 13 8 13C8.552 13 9 12.552 9 12Z" fill="currentColor"/>

</symbol>
<symbol id="search" viewBox="0 0 16 16">
<path fill-rule="evenodd" clip-rule="evenodd" d="M12.1464 12.1464C12.3417 11.9512 12.6583 11.9512 12.8536 12.1464L15.3536 14.6464C15.5488 14.8417 15.5488 15.1583 15.3536 15.3536C15.1583 15.5488 14.8417 15.5488 14.6464 15.3536L12.1464 12.8536C11.9512 12.6583 11.9512 12.3417 12.1464 12.1464Z" fill="currentColor"/>
<circle cx="7.5" cy="7.5" r="7" stroke="currentColor"/>

</symbol>
<symbol id="smartphone" viewBox="0 0 12 16">
<path d="M5 3.50781C5 3.23167 5.22386 3.00781 5.5 3.00781H6.5C6.77614 3.00781 7 3.23167 7 3.50781C7 3.78395 6.77614 4.00781 6.5 4.00781H5.5C5.22386 4.00781 5 3.78395 5 3.50781Z" fill="currentColor"/>
<path d="M4.5 11.9922C4.22386 11.9922 4 12.216 4 12.4922C4 12.7683 4.22386 12.9922 4.5 12.9922H7.5C7.77614 12.9922 8 12.7683 8 12.4922C8 12.216 7.77614 11.9922 7.5 11.9922H4.5Z" fill="currentColor"/>
<path fill-rule="evenodd" clip-rule="evenodd" d="M0.00146484 2.04041C0.00146484 0.891516 0.985826 0.00195312 2.13064 0.00195312H9.86922C11.014 0.00195312 11.9984 0.891516 11.9984 2.04041V13.9635C11.9984 15.1124 11.014 16.002 9.86922 16.002H2.13064C0.985825 16.002 0.00146484 15.1124 0.00146484 13.9635V2.04041ZM2.13064 1.00195C1.48336 1.00195 1.00146 1.49701 1.00146 2.04041V13.9635C1.00146 14.5069 1.48336 15.002 2.13064 15.002H9.86922C10.5165 15.002 10.9984 14.5069 10.9984 13.9635V2.04041C10.9984 1.49701 10.5165 1.00195 9.86922 1.00195H2.13064Z" fill="currentColor"/>

</symbol>
<symbol id="twitter-filled" viewBox="0 0 17 15">
<path d="M15.7513 2.30883C15.3957 2.47458 15.0262 2.60552 14.6477 2.69999C15.0671 2.28122 15.3793 1.75804 15.5556 1.17876C15.5662 1.14239 15.5662 1.10351 15.5556 1.06715C15.5449 1.03079 15.5242 0.998617 15.496 0.974807C15.4678 0.950996 15.4334 0.936639 15.3974 0.933589C15.3613 0.93054 15.3253 0.938939 15.2938 0.957702C14.7679 1.28614 14.1998 1.53315 13.607 1.69111C13.5725 1.70027 13.5371 1.70489 13.5016 1.70489C13.3928 1.70452 13.2878 1.66241 13.2064 1.58644C12.5759 1.00194 11.7643 0.679686 10.924 0.680176C10.5532 0.681258 10.1847 0.741155 9.83084 0.857848C9.27925 1.03924 8.78179 1.36801 8.38703 1.81206C7.99227 2.2561 7.71369 2.80026 7.5785 3.39139C7.47762 3.82856 7.44993 4.28089 7.49668 4.72806C7.49862 4.74642 7.49682 4.76501 7.4914 4.78258C7.48598 4.80016 7.47707 4.81632 7.46526 4.82998C7.45324 4.844 7.43862 4.85526 7.42229 4.86308C7.40597 4.8709 7.38829 4.8751 7.37035 4.87543H7.35791C6.15183 4.76046 4.97998 4.39188 3.91182 3.79154C2.84366 3.1912 1.90096 2.37133 1.13959 1.38053C1.12116 1.35677 1.09753 1.33805 1.07073 1.32597C1.04392 1.3139 1.01474 1.30883 0.985669 1.3112C0.956599 1.31356 0.928506 1.3233 0.903789 1.33957C0.879071 1.35584 0.858465 1.37817 0.843729 1.40464C0.459087 2.10132 0.305458 2.91276 0.407003 3.71133C0.508549 4.5099 0.859507 5.25032 1.40469 5.81613C1.1302 5.7476 0.865925 5.63985 0.619215 5.49591C0.591893 5.4801 0.561145 5.47199 0.529964 5.47239C0.498783 5.47278 0.468231 5.48166 0.441278 5.49816C0.414326 5.51466 0.391893 5.53822 0.37616 5.56655C0.360428 5.59487 0.351932 5.627 0.3515 5.65981C0.343286 6.36317 0.529278 7.05393 0.886908 7.64826C1.24454 8.24259 1.75843 8.71495 2.36624 9.00803H2.29096C2.09589 9.00777 1.90128 8.98817 1.70971 8.94949C1.67899 8.94341 1.64729 8.94582 1.61772 8.95649C1.58815 8.96716 1.56171 8.98572 1.541 9.01036C1.52029 9.03499 1.50601 9.06486 1.49955 9.09705C1.4931 9.12923 1.49469 9.16262 1.50418 9.19396C1.6991 9.8307 2.05713 10.3985 2.53892 10.8351C3.0207 11.2716 3.60758 11.5599 4.23501 11.6683C3.18098 12.4131 1.93933 12.8093 0.669616 12.8059H0.270989C0.212084 12.8047 0.154519 12.8245 0.107601 12.862C0.0606837 12.8995 0.0271554 12.9525 0.0124374 13.0125C-0.00140771 13.0732 0.00387405 13.137 0.0274866 13.1943C0.0510992 13.2515 0.091763 13.2992 0.143349 13.33C1.58832 14.2138 3.22991 14.6795 4.90135 14.6797C6.30347 14.6933 7.69138 14.3835 8.96748 13.7721C10.1036 13.2178 11.117 12.4195 11.9425 11.4286C12.731 10.4848 13.3484 9.39688 13.7641 8.21883C14.1664 7.0959 14.3761 5.90675 14.3833 4.70672V4.65162C14.3834 4.5591 14.4033 4.46778 14.4413 4.38436C14.4794 4.30094 14.5347 4.22755 14.6032 4.16957C15.1343 3.71705 15.5977 3.18312 15.9778 2.58567C15.998 2.55144 16.0073 2.51137 16.0044 2.47122C16.0015 2.43107 15.9865 2.39293 15.9617 2.3623C15.9369 2.33166 15.9034 2.3101 15.8662 2.30074C15.829 2.29138 15.7899 2.2947 15.7546 2.31021L15.7513 2.30883Z" fill="currentColor"/>

</symbol>
<symbol id="check" viewBox="0 0 512 512">
		<path fill="currentColor" d="M470.6 105.4c12.5 12.5 12.5 32.8 0 45.3l-256 256c-12.5 12.5-32.8 12.5-45.3 0l-128-128c-12.5-12.5-12.5-32.8 0-45.3s32.8-12.5 45.3 0L192 338.7 425.4 105.4c12.5-12.5 32.8-12.5 45.3 0z"/>
</symbol>

<symbol id="camera" class="c-icon" viewBox="0 -2 32 32" version="1.1" xmlns="http://www.w3.org/2000/svg" xmlns:xlink="http://www.w3.org/1999/xlink" xmlns:sketch="http://www.bohemiancoding.com/sketch/ns">
	<g id="Page-1" stroke="none" stroke-width="1" fill="none" fill-rule="evenodd" sketch:type="MSPage">
		<g id="Icon-Set-Filled" sketch:type="MSLayerGroup" transform="translate(-258.000000, -467.000000)" fill="#000000">
			<path d="M286,471 L283,471 L282,469 C281.411,467.837 281.104,467 280,467 L268,467 C266.896,467 266.53,467.954 266,469 L265,471 L262,471 C259.791,471 258,472.791 258,475 L258,491 C258,493.209 259.791,495 262,495 L286,495 C288.209,495 290,493.209 290,491 L290,475 C290,472.791 288.209,471 286,471 Z M274,491 C269.582,491 266,487.418 266,483 C266,478.582 269.582,475 274,475 C278.418,475 282,478.582 282,483 C282,487.418 278.418,491 274,491 Z M274,477 C270.687,477 268,479.687 268,483 C268,486.313 270.687,489 274,489 C277.313,489 280,486.313 280,483 C280,479.687 277.313,477 274,477 L274,477 Z" id="camera" sketch:type="MSShapeGroup">

			</path>
		</g>
	</g>
</symbol>

<symbol viewBox="0 0 20 20" version="1.1" xmlns="http://www.w3.org/2000/svg" xmlns:xlink="http://www.w3.org/1999/xlink">
	<g id="Page-1" stroke="none" stroke-width="1" fill="none" fill-rule="evenodd">
		<g id="Dribbble-Light-Preview" transform="translate(-140.000000, -2159.000000)" fill="#000000">
			<g id="icons" transform="translate(56.000000, 160.000000)">
				<path d="M100.562548,2016.99998 L87.4381713,2016.99998 C86.7317804,2016.99998 86.2101535,2016.30298 86.4765813,2015.66198 C87.7127655,2012.69798 90.6169306,2010.99998 93.9998492,2010.99998 C97.3837885,2010.99998 100.287954,2012.69798 101.524138,2015.66198 C101.790566,2016.30298 101.268939,2016.99998 100.562548,2016.99998 M89.9166645,2004.99998 C89.9166645,2002.79398 91.7489936,2000.99998 93.9998492,2000.99998 C96.2517256,2000.99998 98.0830339,2002.79398 98.0830339,2004.99998 C98.0830339,2007.20598 96.2517256,2008.99998 93.9998492,2008.99998 C91.7489936,2008.99998 89.9166645,2007.20598 89.9166645,2004.99998 M103.955674,2016.63598 C103.213556,2013.27698 100.892265,2010.79798 97.837022,2009.67298 C99.4560048,2008.39598 100.400241,2006.33098 100.053171,2004.06998 C99.6509769,2001.44698 97.4235996,1999.34798 94.7348224,1999.04198 C91.0232075,1998.61898 87.8750721,2001.44898 87.8750721,2004.99998 C87.8750721,2006.88998 88.7692896,2008.57398 90.1636971,2009.67298 C87.1074334,2010.79798 84.7871636,2013.27698 84.044024,2016.63598 C83.7745338,2017.85698 84.7789973,2018.99998 86.0539717,2018.99998 L101.945727,2018.99998 C103.221722,2018.99998 104.226185,2017.85698 103.955674,2016.63598" id="profile_round-[#1342]">
				</path>
			</g>
		</g>
	</g>
</symbol>
</svg>