<svg xmlns="http://www.w3.org/2000/svg" viewBox="0 0 444.45 150">
    <defs>
        <style>
            .circle {
            fill: #f05a22;
            }
            .petal {
            fill: #fff;
            }
        </style>
    </defs>
    <g>
        <path d="M214.1,72.45l19.73,25.31H219.94L203.44,75.6V97.76H191.82V47.55h11.62v22.3L220,47.55h13.77Z"></path>
        <path d="M269.79,83.49H244.25c.21,4.55,3.23,7,8.1,7,3.38,0,5.53-.91,6.46-3.09h10.74c-1.07,6.81-8,11.33-17.21,11.33-11.77,0-19-6.67-19-18.18,0-11.33,7.39-18.18,18.65-18.18,10.76,0,18.07,6.67,18.07,16.42a37.45,37.45,0,0,1-.26,4.74Zm-10.54-6.82c-.08-4.54-2.66-7-7.32-7s-7.6,2.8-7.68,7Z"></path>
        <path d="M276.39,63.19h11v5c2-3.87,6-6,11.19-6,8.4,0,12.63,4.73,12.63,14.12V97.74H300.13V80c0-5.81-1.65-8.46-6.09-8.46s-6.68,2.87-6.68,8.18V97.8h-11Z"></path>
        <path d="M341.24,89v8.75a43.8,43.8,0,0,1-7.32.58c-5.17,0-12.27-1.15-12.27-12.73V71.86H316.2V63.19h5.45V52.93h11V63.19h7.83v8.67h-7.81V83.35c0,5.09,2.08,5.88,4.8,5.88A32.11,32.11,0,0,0,341.24,89Z"></path>
        <path d="M346.25,53.5a6.68,6.68,0,1,1,.5,2.58,6.52,6.52,0,0,1-.5-2.58Zm1.3,9.69h10.9V97.74h-10.9Z"></path>
        <path d="M364.84,80.47c0-10.91,7.1-18.18,18.5-18.18,10.32,0,17.07,5.46,17.93,14.06h-11c-.79-3.22-2.87-4.73-6.89-4.73-4.74,0-7.6,3.15-7.6,8.89s2.86,8.9,7.6,8.9c4,0,6.1-1.44,6.89-4.46h11c-.86,8.4-7.61,13.78-17.93,13.78C371.94,98.69,364.84,91.37,364.84,80.47Z"></path>
        <path d="M406.07,80.47c0-10.54,7.32-18.18,19.23-18.18S444.45,70,444.45,80.47s-7.31,18.18-19.15,18.18S406.07,91,406.07,80.47Zm27.48,0c0-5.23-3.09-9-8.25-9s-8.25,3.73-8.25,9,3,9,8.25,9S433.55,85.71,433.55,80.47Z"></path>
        <circle class="circle" cx="75" cy="75" r="75"></circle>
        <path class="petal" d="M75,65a10.07,10.07,0,1,1-7.1,3A10,10,0,0,1,75,65"></path>
        <path class="petal" d="M100.82,68.1h21.6a.86.86,0,0,1,.53.19.77.77,0,0,1,.28.48c.53,2.72,1.91,13.13-6.84,13.13H101c-8.5,0-8.69-13.8-.1-13.8"></path>
        <path class="petal" d="M49.18,81.9H27.58a.86.86,0,0,1-.53-.19.87.87,0,0,1-.28-.48c-.53-2.72-1.92-13.13,6.84-13.13H49.08c8.5,0,8.69,13.8.1,13.8"></path>
        <path class="petal" d="M88.38,51.86l15.28-15.28a.86.86,0,0,1,.5-.23.8.8,0,0,1,.54.14c2.32,1.57,10.64,7.92,4.44,14.12L98.21,61.54c-6,6-15.9-3.63-9.83-9.68"></path>
        <path class="petal" d="M61.62,98.14,46.34,113.41a.79.79,0,0,1-.5.24.8.8,0,0,1-.54-.14c-2.32-1.58-10.64-7.93-4.44-14.12L51.79,88.45C57.81,82.44,67.69,92.08,61.62,98.14Z"></path>
        <path class="petal" d="M68.1,49.18V27.57a.83.83,0,0,1,.19-.52.77.77,0,0,1,.48-.28c2.72-.52,13.13-1.92,13.13,6.85V49c0,8.5-13.8,8.69-13.8.1"></path>
        <path class="petal" d="M81.9,100.82v21.61a.83.83,0,0,1-.19.52.87.87,0,0,1-.48.28c-2.72.52-13.13,1.91-13.13-6.85V100.91C68.1,92.42,81.9,92.22,81.9,100.82Z"></path>
        <path class="petal" d="M51.87,61.62,36.59,46.34a.81.81,0,0,1-.24-.5.8.8,0,0,1,.14-.54c1.58-2.32,7.93-10.63,14.12-4.44L61.55,51.8c6,6-3.63,15.9-9.68,9.82"></path>
        <path class="petal" d="M98.13,88.38l15.28,15.27a.84.84,0,0,1,.24.51.8.8,0,0,1-.14.54c-1.58,2.32-7.93,10.63-14.13,4.44L88.45,98.2c-6-6,3.63-15.9,9.68-9.82"></path>
    </g>
</svg>