<svg width="1440" height="272" viewBox="0 0 1440 272" fill="none" xmlns="http://www.w3.org/2000/svg">
<g clip-path="url(#clip0_1513_3205)">
<rect width="1440" height="272" fill="#F7F1FF"/>
<path d="M1264 213.5C1264 232.002 1249 247 1230.5 247C1212 247 1197 232.002 1197 213.5C1197 194.998 1212 180 1230.5 180C1249 180 1264 194.998 1264 213.5Z" fill="#EBD8FF"/>
<circle cx="1320" cy="269" r="88" stroke="#EBD8FF" stroke-width="2"/>
<path d="M1521 105C1521 149.183 1485.18 185 1441 185C1396.82 185 1361 149.183 1361 105C1361 60.8172 1396.82 25 1441 25C1485.18 25 1521 60.8172 1521 105Z" fill="#EBD8FF"/>
<path d="M154.76 127.38C154.76 158.518 129.518 183.76 98.3798 183.76C67.2421 183.76 42 158.518 42 127.38C42 96.2421 67.2421 71 98.3798 71C129.518 71 154.76 96.2421 154.76 127.38Z" fill="#EBD8FF"/>
<circle cx="32.5" cy="170.5" r="64.5" stroke="#EBD8FF" stroke-width="2"/>
<circle cx="1130.5" cy="-6.5" r="52.5" stroke="#EBD8FF" stroke-width="2"/>
</g>
<defs>
<clipPath id="clip0_1513_3205">
<rect width="1440" height="272" fill="white"/>
</clipPath>
</defs>
</svg>
