<svg width="768" height="272" viewBox="0 0 768 272" fill="none" xmlns="http://www.w3.org/2000/svg">
<g clip-path="url(#clip0_1513_3244)">
<rect width="768" height="272" fill="#F7F1FF"/>
<path d="M634 213.5C634 232.002 619.002 247 600.5 247C581.998 247 567 232.002 567 213.5C567 194.998 581.998 180 600.5 180C619.002 180 634 194.998 634 213.5Z" fill="#EBD8FF"/>
<circle cx="690" cy="269" r="88" stroke="#EBD8FF" stroke-width="2"/>
<path d="M849 105C849 149.183 813.183 185 769 185C724.817 185 689 149.183 689 105C689 60.8172 724.817 25 769 25C813.183 25 849 60.8172 849 105Z" fill="#EBD8FF"/>
<path d="M154.76 127.38C154.76 158.518 129.518 183.76 98.3798 183.76C67.2421 183.76 42 158.518 42 127.38C42 96.2421 67.2421 71 98.3798 71C129.518 71 154.76 96.2421 154.76 127.38Z" fill="#EBD8FF"/>
<circle cx="32.5" cy="170.5" r="64.5" stroke="#EBD8FF" stroke-width="2"/>
<circle cx="710.5" cy="-6.5" r="52.5" stroke="#EBD8FF" stroke-width="2"/>
</g>
<defs>
<clipPath id="clip0_1513_3244">
<rect width="768" height="272" fill="white"/>
</clipPath>
</defs>
</svg>
