<svg width="1024" height="272" viewBox="0 0 1024 272" fill="none" xmlns="http://www.w3.org/2000/svg">
<g clip-path="url(#clip0_1513_3234)">
<rect width="1024" height="272" fill="#F7F1FF"/>
<path d="M874 213.5C874 232.002 859.002 247 840.5 247C821.998 247 807 232.002 807 213.5C807 194.998 821.998 180 840.5 180C859.002 180 874 194.998 874 213.5Z" fill="#EBD8FF"/>
<circle cx="930" cy="269" r="88" stroke="#EBD8FF" stroke-width="2"/>
<path d="M1105 105C1105 149.183 1069.18 185 1025 185C980.817 185 945 149.183 945 105C945 60.8172 980.817 25 1025 25C1069.18 25 1105 60.8172 1105 105Z" fill="#EBD8FF"/>
<path d="M154.76 127.38C154.76 158.518 129.518 183.76 98.3798 183.76C67.2421 183.76 42 158.518 42 127.38C42 96.2421 67.2421 71 98.3798 71C129.518 71 154.76 96.2421 154.76 127.38Z" fill="#EBD8FF"/>
<circle cx="32.5" cy="170.5" r="64.5" stroke="#EBD8FF" stroke-width="2"/>
<circle cx="870.5" cy="-6.5" r="52.5" stroke="#EBD8FF" stroke-width="2"/>
</g>
<defs>
<clipPath id="clip0_1513_3234">
<rect width="1024" height="272" fill="white"/>
</clipPath>
</defs>
</svg>
